<?xml version="1.0" encoding="utf-8" standalone="no"?>
<!DOCTYPE svg PUBLIC "-//W3C//DTD SVG 1.1//EN"
  "http://www.w3.org/Graphics/SVG/1.1/DTD/svg11.dtd">
<!-- Created with matplotlib (http://matplotlib.org/) -->
<svg height="288pt" version="1.1" viewBox="0 0 360 288" width="360pt" xmlns="http://www.w3.org/2000/svg" xmlns:xlink="http://www.w3.org/1999/xlink">
 <defs>
  <style type="text/css">
*{stroke-linecap:butt;stroke-linejoin:round;}
  </style>
 </defs>
 <g id="figure_1">
  <g id="patch_1">
   <path d="
M0 288
L360 288
L360 0
L0 0
z
" style="fill:#ffffff;"/>
  </g>
  <g id="patch_2">
   <path d="
M64.8 244.8
L347.4 244.8
L347.4 14.4
L64.8 14.4
z
" style="fill:#ffffff;"/>
  </g>
  <g id="pane3d_1">
   <g id="patch_3">
    <path d="
M102.263 193.89
L183.145 137.401
L181.798 29.4599
L96.4067 80.214" style="fill:#f2f2f2;opacity:0.5;stroke:#f2f2f2;stroke-linejoin:miter;"/>
   </g>
  </g>
  <g id="pane3d_2">
   <g id="patch_4">
    <path d="
M183.145 137.401
L314.165 168.982
L319.647 57.7859
L181.798 29.4599" style="fill:#e6e6e6;opacity:0.5;stroke:#e6e6e6;stroke-linejoin:miter;"/>
   </g>
  </g>
  <g id="pane3d_3">
   <g id="patch_5">
    <path d="
M102.263 193.89
L240.114 230.671
L314.165 168.982
L183.145 137.401" style="fill:#ececec;opacity:0.5;stroke:#ececec;stroke-linejoin:miter;"/>
   </g>
  </g>
  <g id="axis3d_1">
   <g id="line2d_1">
    <path d="
M102.263 193.89
L240.114 230.671" style="fill:none;stroke:#000000;stroke-linecap:square;stroke-width:0.75;"/>
   </g>
   <g id="text_1">
    <!-- $ x_{\mathrm{G}1} $ -->
    <defs>
     <path d="
M7.8125 2.875
Q9.57812 1.51562 12.7969 1.51562
Q15.9219 1.51562 18.3125 4.51562
Q20.7031 7.51562 21.5781 11.0781
L26.125 28.8125
Q27.2031 33.6406 27.2031 35.4062
Q27.2031 37.8906 25.8125 39.75
Q24.4219 41.6094 21.9219 41.6094
Q18.75 41.6094 15.9688 39.625
Q13.1875 37.6406 11.2812 34.5938
Q9.375 31.5469 8.59375 28.4219
Q8.40625 27.7812 7.8125 27.7812
L6.59375 27.7812
Q5.8125 27.7812 5.8125 28.7188
L5.8125 29
Q6.78125 32.7188 9.125 36.25
Q11.4688 39.7969 14.8594 41.9844
Q18.2656 44.1875 22.125 44.1875
Q25.7812 44.1875 28.7344 42.2344
Q31.6875 40.2812 32.9062 36.9219
Q34.625 39.9844 37.2812 42.0781
Q39.9375 44.1875 43.1094 44.1875
Q45.2656 44.1875 47.5 43.4219
Q49.75 42.6719 51.1719 41.1094
Q52.5938 39.5469 52.5938 37.2031
Q52.5938 34.6719 50.9531 32.8281
Q49.3125 31 46.7812 31
Q45.1719 31 44.0938 32.0312
Q43.0156 33.0625 43.0156 34.625
Q43.0156 36.7188 44.4531 38.2969
Q45.9062 39.8906 47.9062 40.1875
Q46.0938 41.6094 42.9219 41.6094
Q39.7031 41.6094 37.3281 38.625
Q34.9688 35.6406 33.9844 31.9844
L29.5938 14.3125
Q28.5156 10.2969 28.5156 7.71875
Q28.5156 5.17188 29.9531 3.34375
Q31.3906 1.51562 33.7969 1.51562
Q38.4844 1.51562 42.1562 5.64062
Q45.8438 9.76562 47.0156 14.7031
Q47.2188 15.2812 47.7969 15.2812
L49.0312 15.2812
Q49.4219 15.2812 49.6562 15.0156
Q49.9062 14.75 49.9062 14.4062
Q49.9062 14.3125 49.8125 14.1094
Q48.3906 8.15625 43.8438 3.51562
Q39.3125 -1.125 33.5938 -1.125
Q29.9375 -1.125 26.9844 0.84375
Q24.0312 2.82812 22.7969 6.20312
Q21.2344 3.26562 18.4688 1.0625
Q15.7188 -1.125 12.5938 -1.125
Q10.4531 -1.125 8.17188 -0.359375
Q5.90625 0.390625 4.48438 1.95312
Q3.07812 3.51562 3.07812 5.90625
Q3.07812 8.25 4.70312 10.1719
Q6.34375 12.1094 8.79688 12.1094
Q10.4531 12.1094 11.5781 11.1094
Q12.7031 10.1094 12.7031 8.5
Q12.7031 6.39062 11.2969 4.82812
Q9.90625 3.26562 7.8125 2.875" id="Cmmi10-78"/>
     <path d="
M23 10.6875
Q26.6094 6.29688 31.8125 3.79688
Q37.0156 1.3125 42.6719 1.3125
Q48.25 1.3125 52.7812 4.14062
Q57.3281 6.98438 57.3281 12.2031
L57.3281 20.6094
Q57.3281 23.7812 44.8281 23.7812
L44.8281 27.2969
L73.4844 27.2969
L73.4844 23.7812
Q70.3125 23.7812 68.4531 23.2344
Q66.6094 22.7031 66.6094 20.6094
L66.6094 0.875
Q66.6094 0.53125 66.3281 0.265625
Q66.0625 0 65.7188 0
Q64.7969 0 62.625 2.1875
Q60.4531 4.39062 59.1875 6.10938
Q56.7344 1.90625 51.5156 -0.140625
Q46.2969 -2.20312 40.5781 -2.20312
Q30.8594 -2.20312 22.875 2.79688
Q14.8906 7.8125 10.25 16.1875
Q5.60938 24.5625 5.60938 34.1875
Q5.60938 41.2656 8.29688 47.9531
Q10.9844 54.6406 15.7969 59.7188
Q20.6094 64.7969 27 67.6562
Q33.4062 70.5156 40.5781 70.5156
Q45.75 70.5156 50.3594 68.2812
Q54.9844 66.0625 58.5938 62.0156
L64.4062 70.2188
Q64.9844 70.5156 65.0938 70.5156
L65.8281 70.5156
Q66.1094 70.5156 66.3594 70.2656
Q66.6094 70.0156 66.6094 69.6719
L66.6094 42.6719
Q66.6094 41.7969 65.8281 41.7969
L64.0156 41.7969
Q63.0938 41.7969 63.0938 42.6719
Q63.0938 45.5625 61.9375 49.125
Q60.7969 52.6875 59.0156 55.875
Q57.2344 59.0781 54.8906 61.5312
Q49.2656 67 42 67
Q36.4219 67 31.3438 64.5
Q26.2656 62.0156 22.7969 57.625
Q19.1406 52.9375 17.7188 46.9531
Q16.3125 40.9688 16.3125 34.1875
Q16.3125 18.8438 23 10.6875" id="Cmr10-47"/>
     <path d="
M9.28125 0
L9.28125 3.51562
Q21.7812 3.51562 21.7812 6.6875
L21.7812 59.1875
Q16.6094 56.6875 8.6875 56.6875
L8.6875 60.2031
Q20.9531 60.2031 27.2031 66.6094
L28.6094 66.6094
Q28.9531 66.6094 29.2656 66.3281
Q29.5938 66.0625 29.5938 65.7188
L29.5938 6.6875
Q29.5938 3.51562 42.0938 3.51562
L42.0938 0
z
" id="Cmr10-31"/>
    </defs>
    <g transform="translate(143.869566071 234.229699933)rotate(-345.0605266587159)scale(0.2 -0.2)">
     <use transform="translate(0.0 0.8125)" xlink:href="#Cmmi10-78"/>
     <use transform="translate(57.080078125 -24.696875000000006)scale(0.7)" xlink:href="#Cmr10-47"/>
     <use transform="translate(111.97265625 -24.696875000000006)scale(0.7)" xlink:href="#Cmr10-31"/>
    </g>
   </g>
   <g id="Line3DCollection_1">
    <path d="
M115.491 197.419
L195.756 140.441
L195.04 32.181" style="fill:none;stroke:#e6e6e6;"/>
    <path d="
M225.752 226.839
L300.555 165.701
L305.3 54.8378" style="fill:none;stroke:#e6e6e6;"/>
   </g>
   <g id="xtick_1">
    <g id="line2d_2">
     <path d="
M116.183 196.928
L114.106 198.403" style="fill:none;stroke:#000000;stroke-linecap:square;"/>
    </g>
    <g id="text_2">
     <!-- 0 -->
     <defs>
      <path d="
M31.7812 66.4062
Q24.1719 66.4062 20.3281 58.9062
Q16.5 51.4219 16.5 36.375
Q16.5 21.3906 20.3281 13.8906
Q24.1719 6.39062 31.7812 6.39062
Q39.4531 6.39062 43.2812 13.8906
Q47.125 21.3906 47.125 36.375
Q47.125 51.4219 43.2812 58.9062
Q39.4531 66.4062 31.7812 66.4062
M31.7812 74.2188
Q44.0469 74.2188 50.5156 64.5156
Q56.9844 54.8281 56.9844 36.375
Q56.9844 17.9688 50.5156 8.26562
Q44.0469 -1.42188 31.7812 -1.42188
Q19.5312 -1.42188 13.0625 8.26562
Q6.59375 17.9688 6.59375 36.375
Q6.59375 54.8281 13.0625 64.5156
Q19.5312 74.2188 31.7812 74.2188" id="BitstreamVeraSans-Roman-30"/>
     </defs>
     <g transform="translate(107.387173291 217.563984532)scale(0.14 -0.14)">
      <use xlink:href="#BitstreamVeraSans-Roman-30"/>
     </g>
    </g>
   </g>
   <g id="xtick_2">
    <g id="line2d_3">
     <path d="
M226.398 226.31
L224.457 227.897" style="fill:none;stroke:#000000;stroke-linecap:square;"/>
    </g>
    <g id="text_3">
     <!-- 1 -->
     <defs>
      <path d="
M12.4062 8.29688
L28.5156 8.29688
L28.5156 63.9219
L10.9844 60.4062
L10.9844 69.3906
L28.4219 72.9062
L38.2812 72.9062
L38.2812 8.29688
L54.3906 8.29688
L54.3906 0
L12.4062 0
z
" id="BitstreamVeraSans-Roman-31"/>
     </defs>
     <g transform="translate(218.131929683 247.382279182)scale(0.14 -0.14)">
      <use xlink:href="#BitstreamVeraSans-Roman-31"/>
     </g>
    </g>
   </g>
  </g>
  <g id="axis3d_2">
   <g id="line2d_4">
    <path d="
M314.165 168.982
L240.114 230.671" style="fill:none;stroke:#000000;stroke-linecap:square;stroke-width:0.75;"/>
   </g>
   <g id="text_4">
    <!-- $ x_{\mathrm{G}2} $ -->
    <defs>
     <path d="
M4.98438 0
L4.98438 2.6875
Q4.98438 2.9375 5.17188 3.21875
L20.7031 20.4062
Q24.2188 24.2188 26.4062 26.7969
Q28.6094 29.3906 30.75 32.7656
Q32.9062 36.1406 34.1562 39.625
Q35.4062 43.1094 35.4062 47.0156
Q35.4062 51.125 33.8906 54.8594
Q32.375 58.5938 29.375 60.8438
Q26.375 63.0938 22.125 63.0938
Q17.7812 63.0938 14.3125 60.4688
Q10.8438 57.8594 9.42188 53.7188
Q9.8125 53.8125 10.5 53.8125
Q12.75 53.8125 14.3281 52.2969
Q15.9219 50.7812 15.9219 48.3906
Q15.9219 46.0938 14.3281 44.5
Q12.75 42.9219 10.5 42.9219
Q8.15625 42.9219 6.5625 44.5469
Q4.98438 46.1875 4.98438 48.3906
Q4.98438 52.1562 6.39062 55.4375
Q7.8125 58.7344 10.4688 61.2969
Q13.1406 63.875 16.4844 65.2344
Q19.8281 66.6094 23.5781 66.6094
Q29.2969 66.6094 34.2188 64.1875
Q39.1562 61.7656 42.0312 57.3438
Q44.9219 52.9375 44.9219 47.0156
Q44.9219 42.6719 43.0156 38.7656
Q41.1094 34.8594 38.125 31.6562
Q35.1562 28.4688 30.5156 24.4062
Q25.875 20.3594 24.4219 19
L13.0938 8.10938
L22.7031 8.10938
Q29.7812 8.10938 34.5469 8.21875
Q39.3125 8.34375 39.5938 8.59375
Q40.7656 9.85938 42 17.8281
L44.9219 17.8281
L42.0938 0
z
" id="Cmr10-32"/>
    </defs>
    <g transform="translate(287.397764011 229.554916241)rotate(-39.79645824354705)scale(0.2 -0.2)">
     <use transform="translate(0.0 0.8125)" xlink:href="#Cmmi10-78"/>
     <use transform="translate(57.080078125 -24.696875000000006)scale(0.7)" xlink:href="#Cmr10-47"/>
     <use transform="translate(111.97265625 -24.696875000000006)scale(0.7)" xlink:href="#Cmr10-32"/>
    </g>
   </g>
   <g id="Line3DCollection_2">
    <path d="
M105.568 74.7689
L110.91 187.85
L248.055 224.056" style="fill:none;stroke:#e6e6e6;"/>
    <path d="
M173.843 34.1881
L175.583 142.682
L307.263 174.731" style="fill:none;stroke:#e6e6e6;"/>
   </g>
   <g id="xtick_3">
    <g id="line2d_5">
     <path d="
M246.907 223.753
L250.353 224.662" style="fill:none;stroke:#000000;stroke-linecap:square;"/>
    </g>
    <g id="text_5">
     <!-- 0 -->
     <g transform="translate(252.446459559 242.99034551)scale(0.14 -0.14)">
      <use xlink:href="#BitstreamVeraSans-Roman-30"/>
     </g>
    </g>
   </g>
   <g id="xtick_4">
    <g id="line2d_6">
     <path d="
M306.164 174.464
L309.464 175.267" style="fill:none;stroke:#000000;stroke-linecap:square;"/>
    </g>
    <g id="text_6">
     <!-- 1 -->
     <g transform="translate(311.643196808 193.183712117)scale(0.14 -0.14)">
      <use xlink:href="#BitstreamVeraSans-Roman-31"/>
     </g>
    </g>
   </g>
  </g>
  <g id="axis3d_3">
   <g id="line2d_7">
    <path d="
M314.165 168.982
L319.647 57.7859" style="fill:none;stroke:#000000;stroke-linecap:square;stroke-width:0.75;"/>
   </g>
   <g id="text_7">
    <!-- $ x_{\mathrm{G}3} $ -->
    <defs>
     <path d="
M9.51562 7.71875
Q11.8594 4.29688 15.8125 2.64062
Q19.7812 0.984375 24.3125 0.984375
Q30.125 0.984375 32.5625 5.9375
Q35.0156 10.8906 35.0156 17.1875
Q35.0156 20.0156 34.5 22.8438
Q33.9844 25.6875 32.7656 28.125
Q31.5469 30.5625 29.4219 32.0312
Q27.2969 33.5 24.2188 33.5
L17.5781 33.5
Q16.7031 33.5 16.7031 34.4219
L16.7031 35.2969
Q16.7031 36.0781 17.5781 36.0781
L23.0938 36.5312
Q26.6094 36.5312 28.9219 39.1562
Q31.25 41.7969 32.3281 45.5781
Q33.4062 49.3594 33.4062 52.7812
Q33.4062 57.5625 31.1562 60.6406
Q28.9062 63.7188 24.3125 63.7188
Q20.5156 63.7188 17.0469 62.2812
Q13.5781 60.8438 11.5312 57.9062
Q11.7188 57.9531 11.8594 57.9844
Q12.0156 58.0156 12.2031 58.0156
Q14.4531 58.0156 15.9688 56.4531
Q17.4844 54.8906 17.4844 52.6875
Q17.4844 50.5312 15.9688 48.9688
Q14.4531 47.4062 12.2031 47.4062
Q10.0156 47.4062 8.45312 48.9688
Q6.89062 50.5312 6.89062 52.6875
Q6.89062 56.9844 9.46875 60.1562
Q12.0625 63.3281 16.1406 64.9688
Q20.2188 66.6094 24.3125 66.6094
Q27.3438 66.6094 30.7031 65.7031
Q34.0781 64.7969 36.8125 63.1094
Q39.5469 61.4219 41.2812 58.7812
Q43.0156 56.1562 43.0156 52.7812
Q43.0156 48.5781 41.1406 45.0156
Q39.2656 41.4531 35.9844 38.8594
Q32.7188 36.2812 28.8125 35.0156
Q33.1562 34.1875 37.0625 31.7344
Q40.9688 29.2969 43.3281 25.4844
Q45.7031 21.6875 45.7031 17.2812
Q45.7031 11.7656 42.6719 7.29688
Q39.6562 2.82812 34.7188 0.3125
Q29.7812 -2.20312 24.3125 -2.20312
Q19.625 -2.20312 14.9062 -0.40625
Q10.2031 1.375 7.20312 4.9375
Q4.20312 8.5 4.20312 13.4844
Q4.20312 15.9688 5.85938 17.625
Q7.51562 19.2812 10.0156 19.2812
Q11.625 19.2812 12.9688 18.5312
Q14.3125 17.7812 15.0625 16.4062
Q15.8281 15.0469 15.8281 13.4844
Q15.8281 11.0312 14.1094 9.375
Q12.4062 7.71875 10.0156 7.71875
z
" id="Cmr10-33"/>
    </defs>
    <g transform="translate(346.999905306 126.762260427)rotate(-87.17771180173463)scale(0.2 -0.2)">
     <use transform="translate(0.0 0.8125)" xlink:href="#Cmmi10-78"/>
     <use transform="translate(57.080078125 -24.696875000000006)scale(0.7)" xlink:href="#Cmr10-47"/>
     <use transform="translate(111.97265625 -24.696875000000006)scale(0.7)" xlink:href="#Cmr10-33"/>
    </g>
   </g>
   <g id="Line3DCollection_3">
    <path d="
M314.689 158.365
L183.016 127.074
L101.705 183.053" style="fill:none;stroke:#e6e6e6;"/>
    <path d="
M319.073 69.429
L181.939 40.7402
L97.0209 92.1351" style="fill:none;stroke:#e6e6e6;"/>
   </g>
   <g id="xtick_5">
    <g id="line2d_8">
     <path d="
M313.59 158.104
L316.888 158.887" style="fill:none;stroke:#000000;stroke-linecap:square;"/>
    </g>
    <g id="text_8">
     <!-- 0 -->
     <g transform="translate(322.68814173 167.66633008)scale(0.14 -0.14)">
      <use xlink:href="#BitstreamVeraSans-Roman-30"/>
     </g>
    </g>
   </g>
   <g id="xtick_6">
    <g id="line2d_9">
     <path d="
M317.927 69.1892
L321.368 69.9092" style="fill:none;stroke:#000000;stroke-linecap:square;"/>
    </g>
    <g id="text_9">
     <!-- 1 -->
     <g transform="translate(328.034758589 78.8397212819)scale(0.14 -0.14)">
      <use xlink:href="#BitstreamVeraSans-Roman-31"/>
     </g>
    </g>
   </g>
  </g>
  <g id="axes_1">
   <g id="Path3DCollection_1">
    <defs>
     <path d="
M0 2.23607
C0.593012 2.23607 1.16182 2.00046 1.58114 1.58114
C2.00046 1.16182 2.23607 0.593012 2.23607 0
C2.23607 -0.593012 2.00046 -1.16182 1.58114 -1.58114
C1.16182 -2.00046 0.593012 -2.23607 0 -2.23607
C-0.593012 -2.23607 -1.16182 -2.00046 -1.58114 -1.58114
C-2.00046 -1.16182 -2.23607 -0.593012 -2.23607 0
C-2.23607 0.593012 -2.00046 1.16182 -1.58114 1.58114
C-1.16182 2.00046 -0.593012 2.23607 0 2.23607
z
" id="C0_0_919e3f95db"/>
    </defs>
    <g clip-path="url(#p84c7ccec7d)">
     <use style="fill:#0000ff;fill-opacity:0.739848065662;stroke:#0000ff;stroke-opacity:0.739848065662;" x="155.514822477" xlink:href="#C0_0_919e3f95db" y="175.187675083"/>
    </g>
    <g clip-path="url(#p84c7ccec7d)">
     <use style="fill:#0000ff;fill-opacity:0.680662645486;stroke:#0000ff;stroke-opacity:0.680662645486;" x="125.188999471" xlink:href="#C0_0_919e3f95db" y="165.359739094"/>
    </g>
    <g clip-path="url(#p84c7ccec7d)">
     <use style="fill:#0000ff;fill-opacity:0.826936601125;stroke:#0000ff;stroke-opacity:0.826936601125;" x="195.528817536" xlink:href="#C0_0_919e3f95db" y="188.582360761"/>
    </g>
    <g clip-path="url(#p84c7ccec7d)">
     <use style="fill:#0000ff;fill-opacity:0.853624452239;stroke:#0000ff;stroke-opacity:0.853624452239;" x="151.005663251" xlink:href="#C0_0_919e3f95db" y="162.703092577"/>
    </g>
    <g clip-path="url(#p84c7ccec7d)">
     <use style="fill:#0000ff;fill-opacity:0.711296108827;stroke:#0000ff;stroke-opacity:0.711296108827;" x="167.885971304" xlink:href="#C0_0_919e3f95db" y="95.8123676481"/>
    </g>
    <g clip-path="url(#p84c7ccec7d)">
     <use style="fill:#0000ff;fill-opacity:0.529283210623;stroke:#0000ff;stroke-opacity:0.529283210623;" x="163.587991548" xlink:href="#C0_0_919e3f95db" y="141.946338021"/>
    </g>
    <g clip-path="url(#p84c7ccec7d)">
     <use style="fill:#0000ff;fill-opacity:0.421494620137;stroke:#0000ff;stroke-opacity:0.421494620137;" x="207.755365785" xlink:href="#C0_0_919e3f95db" y="133.431902702"/>
    </g>
    <g clip-path="url(#p84c7ccec7d)">
     <use style="fill:#0000ff;fill-opacity:0.708614173737;stroke:#0000ff;stroke-opacity:0.708614173737;" x="229.258155301" xlink:href="#C0_0_919e3f95db" y="120.46120435"/>
    </g>
    <g clip-path="url(#p84c7ccec7d)">
     <use style="fill:#0000ff;fill-opacity:0.3;stroke:#0000ff;stroke-opacity:0.3;" x="181.833697065" xlink:href="#C0_0_919e3f95db" y="131.950439766"/>
    </g>
    <g clip-path="url(#p84c7ccec7d)">
     <use style="fill:#0000ff;fill-opacity:0.583869292641;stroke:#0000ff;stroke-opacity:0.583869292641;" x="157.172751263" xlink:href="#C0_0_919e3f95db" y="124.39515645"/>
    </g>
    <g clip-path="url(#p84c7ccec7d)">
     <use style="fill:#0000ff;fill-opacity:0.342199682936;stroke:#0000ff;stroke-opacity:0.342199682936;" x="244.59426597" xlink:href="#C0_0_919e3f95db" y="131.93515975"/>
    </g>
    <g clip-path="url(#p84c7ccec7d)">
     <use style="fill:#0000ff;fill-opacity:0.876307554904;stroke:#0000ff;stroke-opacity:0.876307554904;" x="208.662577126" xlink:href="#C0_0_919e3f95db" y="177.039580561"/>
    </g>
    <g clip-path="url(#p84c7ccec7d)">
     <use style="fill:#0000ff;fill-opacity:0.420658097773;stroke:#0000ff;stroke-opacity:0.420658097773;" x="188.847458049" xlink:href="#C0_0_919e3f95db" y="96.7469745822"/>
    </g>
    <g clip-path="url(#p84c7ccec7d)">
     <use style="fill:#0000ff;stroke:#0000ff;" x="268.426937174" xlink:href="#C0_0_919e3f95db" y="88.5636248878"/>
    </g>
    <g clip-path="url(#p84c7ccec7d)">
     <use style="fill:#0000ff;fill-opacity:0.48119698134;stroke:#0000ff;stroke-opacity:0.48119698134;" x="176.846567017" xlink:href="#C0_0_919e3f95db" y="152.825194918"/>
    </g>
    <g clip-path="url(#p84c7ccec7d)">
     <use style="fill:#0000ff;fill-opacity:0.422519224354;stroke:#0000ff;stroke-opacity:0.422519224354;" x="193.714371674" xlink:href="#C0_0_919e3f95db" y="94.1816392571"/>
    </g>
    <g clip-path="url(#p84c7ccec7d)">
     <use style="fill:#0000ff;fill-opacity:0.547802058631;stroke:#0000ff;stroke-opacity:0.547802058631;" x="194.955378025" xlink:href="#C0_0_919e3f95db" y="82.7587657431"/>
    </g>
    <g clip-path="url(#p84c7ccec7d)">
     <use style="fill:#0000ff;fill-opacity:0.356633827238;stroke:#0000ff;stroke-opacity:0.356633827238;" x="169.934683344" xlink:href="#C0_0_919e3f95db" y="144.122189184"/>
    </g>
    <g clip-path="url(#p84c7ccec7d)">
     <use style="fill:#0000ff;fill-opacity:0.72913108512;stroke:#0000ff;stroke-opacity:0.72913108512;" x="184.99203241" xlink:href="#C0_0_919e3f95db" y="104.890924585"/>
    </g>
    <g clip-path="url(#p84c7ccec7d)">
     <use style="fill:#0000ff;fill-opacity:0.741228203635;stroke:#0000ff;stroke-opacity:0.741228203635;" x="158.840132606" xlink:href="#C0_0_919e3f95db" y="157.19674818"/>
    </g>
   </g>
  </g>
 </g>
 <defs>
  <clipPath id="p84c7ccec7d">
   <rect height="230.4" width="282.6" x="64.8" y="14.4"/>
  </clipPath>
 </defs>
</svg>
