<?xml version="1.0" encoding="UTF-8" standalone="no"?>
<svg
   xmlns:dc="http://purl.org/dc/elements/1.1/"
   xmlns:cc="http://creativecommons.org/ns#"
   xmlns:rdf="http://www.w3.org/1999/02/22-rdf-syntax-ns#"
   xmlns:svg="http://www.w3.org/2000/svg"
   xmlns="http://www.w3.org/2000/svg"
   xmlns:sodipodi="http://sodipodi.sourceforge.net/DTD/sodipodi-0.dtd"
   xmlns:inkscape="http://www.inkscape.org/namespaces/inkscape"
   viewBox="0 0 341.4512 38.757923"
   height="38.757923"
   width="341.4512"
   xml:space="preserve"
   id="svg2"
   version="1.1"
   inkscape:version="0.91 r13725"
   sodipodi:docname="logo2016_2.svg"><sodipodi:namedview
     pagecolor="#ffffff"
     bordercolor="#666666"
     borderopacity="1"
     objecttolerance="10"
     gridtolerance="10"
     guidetolerance="10"
     inkscape:pageopacity="0"
     inkscape:pageshadow="2"
     inkscape:window-width="1680"
     inkscape:window-height="988"
     id="namedview34"
     showgrid="false"
     inkscape:zoom="3.9662505"
     inkscape:cx="205.72825"
     inkscape:cy="62.107534"
     inkscape:window-x="-8"
     inkscape:window-y="-8"
     inkscape:window-maximized="1"
     inkscape:current-layer="svg2"
     fit-margin-top="0"
     fit-margin-left="0"
     fit-margin-right="0"
     fit-margin-bottom="0" /><metadata
     id="metadata8"><rdf:RDF><cc:Work
         rdf:about=""><dc:format>image/svg+xml</dc:format><dc:type
           rdf:resource="http://purl.org/dc/dcmitype/StillImage" /><dc:title></dc:title></cc:Work></rdf:RDF></metadata><defs
     id="defs6" /><g
     transform="matrix(1.3333333,0,0,-1.3333333,-37.654026,52.973066)"
     id="g10"><g
       transform="scale(0.1,0.1)"
       id="g12"><path
         id="path14"
         style="fill:#ffffff;fill-opacity:1;fill-rule:nonzero;stroke:none"
         d="m 0,0 3401.57,0 0,496.059 -3401.57,0 z"
         inkscape:connector-curvature="0" /><path
         id="path16"
         style="fill:#ed1443;fill-opacity:1;fill-rule:nonzero;stroke:none"
         d="m 1052.96,270.156 0,6.211 c 0,1.945 -1.62,3.535 -3.55,3.535 l -45.64,0 c -3.55,0 -7.094,-0.703 -9.219,-1.062 2.125,1.601 4.613,4.285 6.569,7.84 l 47.93,83.066 c 1.06,1.777 1.94,3.899 1.94,5.859 l 0,6.399 c 0,2.117 -1.58,3.543 -3.56,3.543 l -59.981,0 c -2.129,0 -3.902,-1.426 -3.902,-3.543 l 0,-5.879 c 0,-1.945 1.773,-3.547 3.902,-3.547 l 40.811,0 c 4.08,0 7.66,0.352 10.31,1.067 -2.12,-1.77 -4.8,-4.426 -6.56,-7.446 l -48.463,-83.804 c -0.715,-1.243 -1.594,-3.008 -1.594,-4.961 l 0,-7.278 c 0,-1.961 1.594,-3.554 3.531,-3.554 l 63.926,0 c 1.93,0 3.55,1.593 3.55,3.554"
         inkscape:connector-curvature="0" /><path
         id="path18"
         style="fill:#ed1443;fill-opacity:1;fill-rule:nonzero;stroke:none"
         d="m 1116.11,317.355 -34.27,0 c 2.11,20.868 11.88,24.188 17.75,24.188 11.72,0 16.17,-12.449 16.52,-24.188 m 14.55,-7.726 c 0,33.34 -15.08,43.418 -31.43,43.418 -18.97,0 -32.14,-16.426 -32.14,-43.047 0,-28.848 13.3,-44.297 37.82,-44.297 10.14,0 15.81,1.789 20.58,3.914 2.16,0.91 3.03,2.68 2.34,4.613 l -1.62,4.434 c -0.72,1.777 -2.13,3.016 -4.63,2.313 -5.27,-1.59 -10.1,-2.852 -16.85,-2.852 -15.98,0 -22.17,9.777 -22.89,27.727 l 45.28,0 c 1.94,0 3.54,1.796 3.54,3.777"
         inkscape:connector-curvature="0" /><path
         id="path20"
         style="fill:#ed1443;fill-opacity:1;fill-rule:nonzero;stroke:none"
         d="m 1216.52,270.156 0,60.703 c 0,13.321 -8.49,22.2 -21.81,22.2 -9.23,0 -16.87,-3.555 -24.48,-12.414 l -1.97,8.691 c -0.53,2.141 -1.6,2.832 -4.08,2.832 l -3.91,0 c -1.96,0 -3.71,-1.406 -3.71,-3.543 l 0,-78.469 c 0,-1.961 1.75,-3.554 3.71,-3.554 l 6.76,0 c 1.94,0 3.72,1.593 3.72,3.554 l 0,48.809 c 0,12.258 9.05,22.043 20.57,22.043 7.84,0 11.01,-3.918 11.01,-13.32 l 0,-57.532 c 0,-1.961 1.79,-3.554 3.74,-3.554 l 6.76,0 c 1.94,0 3.69,1.593 3.69,3.554"
         inkscape:connector-curvature="0" /><path
         id="path22"
         style="fill:#ed1443;fill-opacity:1;fill-rule:nonzero;stroke:none"
         d="m 1280.07,271.582 -0.71,3.711 c -0.34,1.965 -1.98,3.195 -3.72,2.832 -1.78,-0.344 -4.08,-0.691 -5.53,-0.691 -4.42,0 -6.36,2.128 -6.36,6.914 l 0,56.316 9.93,0 c 1.96,0 3.55,1.785 3.55,3.762 l 0,3.965 c 0,1.961 -1.59,3.757 -3.55,3.757 l -9.93,0 0,22.207 c 0,2.813 -2.5,2.649 -4.65,1.934 l -6.55,-2.312 c -1.6,-0.528 -2.66,-1.934 -2.66,-3.907 l 0,-17.922 -9.77,0 c -2.12,0 -3.56,-1.796 -3.56,-3.757 l 0,-3.965 c 0,-1.977 1.44,-3.762 3.56,-3.762 l 9.77,0 0,-58.086 c 0,-11.355 5.67,-16.875 17.74,-16.875 3.74,0 7.29,0.547 9.75,1.262 2.5,0.703 3.07,2.5 2.69,4.617"
         inkscape:connector-curvature="0" /><path
         id="path24"
         style="fill:#ed1443;fill-opacity:1;fill-rule:nonzero;stroke:none"
         d="m 1343.46,346.836 c 0.87,3.566 -3.56,6.223 -9.24,6.223 -8.17,0 -14.94,-4.786 -19.9,-13.145 l -2.51,9.59 c -0.54,1.777 -1.91,2.664 -3.68,2.664 l -4.1,0 c -1.94,0 -3.74,-1.406 -3.74,-3.543 l 0,-78.469 c 0,-1.961 1.8,-3.554 3.74,-3.554 l 6.72,0 c 1.97,0 3.75,1.593 3.75,3.554 l 0,46.348 c 0,15.422 6.94,21.828 12.08,21.828 3.37,0 7.45,-1.242 9.93,-1.965 3.03,-0.887 4.61,0.723 5.15,3.195 l 1.8,7.274"
         inkscape:connector-curvature="0" /><path
         id="path26"
         style="fill:#ed1443;fill-opacity:1;fill-rule:nonzero;stroke:none"
         d="m 1417.98,270.156 0,78.469 c 0,2.137 -1.79,3.543 -3.7,3.543 l -6.76,0 c -1.97,0 -3.73,-1.406 -3.73,-3.543 l 0,-43.145 c 0,-18.8 -8.88,-27.89 -21.49,-27.89 -6.75,0 -10.81,3.73 -10.81,12.461 l 0,58.574 c 0,2.137 -1.78,3.543 -3.76,3.543 l -6.72,0 c -1.96,0 -3.71,-1.406 -3.71,-3.543 l 0,-60.371 c 0,-14.914 8.15,-22.551 21.11,-22.551 15.62,0 21.47,8.359 25.89,13.137 l 2.32,-9.223 c 0.52,-1.949 1.77,-3.015 3.58,-3.015 l 4.08,0 c 1.91,0 3.7,1.593 3.7,3.554"
         inkscape:connector-curvature="0" /><path
         id="path28"
         style="fill:#ed1443;fill-opacity:1;fill-rule:nonzero;stroke:none"
         d="m 1547.05,270.156 0,64.621 c 0,15.078 -11.53,18.282 -19.38,18.282 -9.21,0 -16.83,-4.434 -24.12,-13.145 -1.61,8.172 -8.87,13.145 -18.29,13.145 -9.42,0 -17.58,-6.407 -22.54,-12.239 l -1.97,8.516 c -0.54,2.141 -1.59,2.832 -4.07,2.832 l -3.9,0 c -1.96,0 -3.74,-1.406 -3.74,-3.543 l 0,-78.469 c 0,-1.961 1.78,-3.554 3.74,-3.554 l 6.73,0 c 1.98,0 3.73,1.593 3.73,3.554 l 0,48.977 c 0,12.285 8.88,21.512 19.36,21.512 5.51,0 8.33,-2.84 8.33,-8.368 l 0,-62.121 c 0,-1.961 1.8,-3.554 3.75,-3.554 l 6.73,0 c 1.95,0 3.72,1.593 3.72,3.554 l 0,48.977 c 0,12.285 9.07,21.512 19.54,21.512 5.5,0 8.17,-2.84 8.17,-8.368 l 0,-62.121 c 0,-1.961 1.78,-3.554 3.75,-3.554 l 6.75,0 c 1.94,0 3.71,1.593 3.71,3.554"
         inkscape:connector-curvature="0" /><path
         id="path30"
         style="fill:#ed1443;fill-opacity:1;fill-rule:nonzero;stroke:none"
         d="m 357.363,266.262 -6.91,0 c -2.012,0 -3.797,1.621 -3.797,3.633 l 0,54.207 -45.886,0 0,-54.207 c 0,-2.012 -1.805,-3.633 -3.797,-3.633 l -6.871,0 c -1.989,0 -3.836,1.621 -3.836,3.633 l 0,114.207 c 0,2.16 1.847,3.632 3.836,3.632 l 6.871,0 c 1.992,0 3.797,-1.472 3.797,-3.632 l 0,-46.946 45.886,0 0,46.946 c 0,2.16 1.785,3.632 3.797,3.632 l 6.91,0 c 1.977,0 3.797,-1.472 3.797,-3.632 l 0,-114.207 c 0,-2.012 -1.82,-3.633 -3.797,-3.633"
         inkscape:connector-curvature="0" /><path
         id="path32"
         style="fill:#ed1443;fill-opacity:1;fill-rule:nonzero;stroke:none"
         d="m 420.262,342.961 c -5.981,0 -15.961,-3.477 -18.129,-25.039 l 35.012,0 c -0.391,12.156 -4.922,25.039 -16.883,25.039 m 28.101,-36.641 -46.23,0 c 0.738,-18.3 7.062,-28.281 23.398,-28.281 6.871,0 11.793,1.277 17.203,2.918 2.539,0.703 3.989,-0.555 4.715,-2.383 l 1.621,-4.512 c 0.727,-2 -0.179,-3.82 -2.347,-4.707 -4.891,-2.187 -10.703,-4.023 -21.008,-4.023 -25.039,0 -38.641,15.793 -38.641,45.156 0,27.383 13.418,44.063 32.828,44.063 16.668,0 32.09,-10.156 32.09,-44.403 0,-2.003 -1.633,-3.828 -3.629,-3.828"
         inkscape:connector-curvature="0" /><path
         id="path34"
         style="fill:#ed1443;fill-opacity:1;fill-rule:nonzero;stroke:none"
         d="m 498.746,267.355 c -3.082,-1.093 -6.516,-2.023 -10.695,-2.023 -11.418,0 -16.5,5.461 -16.5,15.422 l 0,110.254 c 0,2.176 1.824,3.621 3.781,3.621 l 6.57,0 c 1.961,0 3.789,-1.445 3.789,-3.621 l 0,-106.613 c 0,-4.532 0.52,-7.079 4.524,-7.079 1.648,0 3.637,0.536 5.797,1.075 2.191,0.554 3.461,0 4.004,-2.325 l 1.078,-4.914 c 0.379,-2 -0.371,-3.078 -2.348,-3.797"
         inkscape:connector-curvature="0" /><path
         id="path36"
         style="fill:#ed1443;fill-opacity:1;fill-rule:nonzero;stroke:none"
         d="m 613.699,266.262 -6.887,0 c -2.007,0 -3.808,1.621 -3.808,3.633 l 0,63.425 c 0,5.645 -2.711,8.547 -8.359,8.547 -10.692,0 -19.915,-9.445 -19.915,-21.933 l 0,-50.039 c 0,-2.012 -1.816,-3.633 -3.835,-3.633 l -6.883,0 c -1.992,0 -3.809,1.621 -3.809,3.633 l 0,63.425 c 0,5.645 -2.906,8.547 -8.527,8.547 -10.676,0 -19.735,-9.445 -19.735,-21.933 l 0,-50.039 c 0,-2.012 -1.839,-3.633 -3.828,-3.633 l -6.879,0 c -1.992,0 -3.832,1.621 -3.832,3.633 l 0,80.105 c 0,2.207 1.84,3.664 3.832,3.664 l 3.989,0 c 2.519,0 3.601,-0.754 4.152,-2.91 l 2.008,-8.723 c 5.082,5.989 13.414,12.52 23.019,12.52 9.61,0 17.043,-5.078 18.7,-13.406 7.402,8.855 15.207,13.406 24.621,13.406 7.968,0 19.781,-3.27 19.781,-18.684 l 0,-65.972 c 0,-2.012 -1.813,-3.633 -3.805,-3.633"
         inkscape:connector-curvature="0" /><path
         id="path38"
         style="fill:#ed1443;fill-opacity:1;fill-rule:nonzero;stroke:none"
         d="m 703.254,266.262 -6.5,0 c -2.012,0 -3.84,1.621 -3.84,3.633 l 0,58.73 c 0,9.617 -3.621,13.613 -11.57,13.613 -11.801,0 -21.414,-10 -21.414,-22.492 l 0,-49.851 c 0,-2.012 -1.84,-3.633 -3.805,-3.633 l -6.551,0 c -1.98,0 -3.804,1.621 -3.804,3.633 l 0,121.113 c 0,2.176 1.824,3.621 3.804,3.621 l 6.551,0 c 1.965,0 3.805,-1.445 3.805,-3.621 l 0,-48.77 c 7.804,8.711 15.582,12.313 24.84,12.313 13.593,0 22.273,-9.071 22.273,-22.656 l 0,-62 c 0,-2.012 -1.809,-3.633 -3.789,-3.633"
         inkscape:connector-curvature="0" /><path
         id="path40"
         style="fill:#ed1443;fill-opacity:1;fill-rule:nonzero;stroke:none"
         d="m 763.262,342.422 c -12.492,0 -19.41,-10.711 -19.41,-32.461 0,-22.293 6.918,-32.645 19.41,-32.645 12.531,0 19.41,10.352 19.41,32.645 0,21.75 -6.879,32.461 -19.41,32.461 m 0.363,-77.09 c -21.051,0 -34.801,16.691 -34.801,44.629 0,27.746 13.75,44.59 34.801,44.59 21.027,0 34.457,-16.844 34.457,-44.59 0,-27.938 -13.43,-44.629 -34.457,-44.629"
         inkscape:connector-curvature="0" /><path
         id="path42"
         style="fill:#ed1443;fill-opacity:1;fill-rule:nonzero;stroke:none"
         d="m 847.043,267.355 c -3.078,-1.093 -6.551,-2.023 -10.719,-2.023 -11.414,0 -16.48,5.461 -16.48,15.422 l 0,110.254 c 0,2.176 1.797,3.621 3.789,3.621 l 6.547,0 c 1.972,0 3.793,-1.445 3.793,-3.621 l 0,-106.613 c 0,-4.532 0.539,-7.079 4.527,-7.079 1.633,0 3.645,0.536 5.801,1.075 2.183,0.554 3.441,0 4,-2.325 l 1.074,-4.914 c 0.375,-2 -0.344,-3.078 -2.332,-3.797"
         inkscape:connector-curvature="0" /><path
         id="path44"
         style="fill:#ed1443;fill-opacity:1;fill-rule:nonzero;stroke:none"
         d="m 895.602,266.621 c -2.532,-0.723 -6.137,-1.289 -9.938,-1.289 -12.34,0 -18.148,5.645 -18.148,17.246 l 0,59.453 -9.954,0 c -2.203,0 -3.652,1.836 -3.652,3.809 l 0,3.984 c 0,2.024 1.449,3.84 3.652,3.84 l 9.954,0 0,18.301 c 0,1.98 1.07,3.437 2.718,3.984 l 6.7,2.344 c 2.187,0.75 4.699,0.918 4.699,-1.984 l 0,-22.645 10.168,0 c 2.011,0 3.613,-1.816 3.613,-3.84 l 0,-3.984 c 0,-1.973 -1.602,-3.809 -3.613,-3.809 l -10.168,0 0,-57.636 c 0,-4.903 2.019,-7.079 6.531,-7.079 1.469,0 3.809,0.36 5.648,0.723 1.79,0.352 3.45,-0.91 3.809,-2.883 l 0.715,-3.828 c 0.344,-2.176 -0.172,-3.973 -2.734,-4.707"
         inkscape:connector-curvature="0" /><path
         id="path46"
         style="fill:#ed1443;fill-opacity:1;fill-rule:nonzero;stroke:none"
         d="m 959.984,266.262 -47.859,0 c -2.551,0 -4.012,2.176 -4.012,5.429 l 0,4.168 c 0,1.633 0.731,3.086 1.461,4.356 l 35,56.367 c 1.446,2.383 2.696,4.395 3.988,5.656 -1.636,-0.371 -4.187,-0.371 -5.261,-0.371 l -29,0 c -2.176,0 -3.637,1.817 -3.637,3.797 l 0,4.16 c 0,2.024 1.461,3.84 3.637,3.84 l 44.761,0 c 2,0 3.618,-1.816 3.618,-3.84 l 0,-5.605 c 0,-1.797 -0.336,-2.899 -1.278,-4.356 L 928.07,285.84 c -1.625,-2.715 -3.808,-5.977 -5.269,-7.801 1.832,0.184 4.742,0.352 6.719,0.352 l 30.464,0 c 1.996,0 3.61,-1.262 3.61,-3.235 l 0,-5.097 c 0,-1.985 -1.614,-3.797 -3.61,-3.797"
         inkscape:connector-curvature="0" /><path
         id="path48"
         style="fill:#ed1443;fill-opacity:1;fill-rule:nonzero;stroke:none"
         d="m 1727.84,270.156 0,64.621 c 0,15.078 -11.54,18.282 -19.35,18.282 -9.23,0 -16.86,-4.434 -24.14,-13.145 -1.6,8.172 -8.87,13.145 -18.26,13.145 -9.45,0 -17.59,-6.407 -22.57,-12.239 l -1.96,8.516 c -0.51,2.141 -1.59,2.832 -4.08,2.832 l -3.88,0 c -1.99,0 -3.77,-1.406 -3.77,-3.543 l 0,-78.469 c 0,-1.961 1.78,-3.554 3.77,-3.554 l 6.73,0 c 1.93,0 3.73,1.593 3.73,3.554 l 0,48.977 c 0,12.285 8.85,21.512 19.34,21.512 5.5,0 8.32,-2.84 8.32,-8.368 l 0,-62.121 c 0,-1.961 1.82,-3.554 3.76,-3.554 l 6.73,0 c 1.97,0 3.74,1.593 3.74,3.554 l 0,48.977 c 0,12.285 9.03,21.512 19.51,21.512 5.5,0 8.17,-2.84 8.17,-8.368 l 0,-62.121 c 0,-1.961 1.8,-3.554 3.72,-3.554 l 6.73,0 c 1.99,0 3.76,1.593 3.76,3.554"
         inkscape:connector-curvature="0" /><path
         id="path50"
         style="fill:#ed1443;fill-opacity:1;fill-rule:nonzero;stroke:none"
         d="m 1909.26,270.156 0,60.703 c 0,13.321 -8.53,22.2 -21.85,22.2 -9.2,0 -16.84,-3.555 -24.46,-12.414 l -2.02,8.691 c -0.48,2.141 -1.57,2.832 -4.04,2.832 l -3.91,0 c -1.93,0 -3.71,-1.406 -3.71,-3.543 l 0,-78.469 c 0,-1.961 1.78,-3.554 3.71,-3.554 l 6.75,0 c 1.95,0 3.75,1.593 3.75,3.554 l 0,48.809 c 0,12.258 9.04,22.043 20.56,22.043 7.84,0 11.01,-3.918 11.01,-13.32 l 0,-57.532 c 0,-1.961 1.79,-3.554 3.74,-3.554 l 6.73,0 c 1.98,0 3.74,1.593 3.74,3.554"
         inkscape:connector-curvature="0" /><path
         id="path52"
         style="fill:#ed1443;fill-opacity:1;fill-rule:nonzero;stroke:none"
         d="m 1987.68,272.297 -1.22,5.484 c -0.35,1.789 -1.97,3.371 -4.43,2.66 -3.38,-0.871 -7.65,-1.601 -12.44,-1.601 -13.5,0 -20.41,10.312 -20.41,31.269 0,19.161 7.81,30.711 18.79,30.711 4.99,0 9.26,-1.433 12.08,-2.488 2.68,-1.047 3.91,0.352 4.44,2.129 l 1.8,5.137 c 0.69,1.953 -0.37,3.386 -2.68,4.422 -3.2,1.457 -9.06,3.039 -15.11,3.039 -19.69,0 -34.43,-17.766 -34.43,-42.95 0,-28.593 13.86,-44.406 34.62,-44.406 6.05,0 11.19,0.547 16.15,2.129 2.33,0.723 3.2,2.695 2.84,4.465"
         inkscape:connector-curvature="0" /><path
         id="path54"
         style="fill:#ed1443;fill-opacity:1;fill-rule:nonzero;stroke:none"
         d="m 2068.09,270.156 0,60.703 c 0,13.321 -8.53,22.2 -21.85,22.2 -9.07,0 -16.68,-3.555 -24.31,-12.051 l 0,47.734 c 0,2.137 -1.79,3.555 -3.72,3.555 l -6.41,0 c -1.97,0 -3.73,-1.418 -3.73,-3.555 l 0,-118.586 c 0,-1.961 1.76,-3.554 3.73,-3.554 l 6.41,0 c 1.93,0 3.72,1.593 3.72,3.554 l 0,48.809 c 0,12.258 9.42,22.043 20.93,22.043 7.79,0 11.37,-3.918 11.37,-13.32 l 0,-57.532 c 0,-1.961 1.75,-3.554 3.75,-3.554 l 6.36,0 c 1.97,0 3.75,1.593 3.75,3.554"
         inkscape:connector-curvature="0" /><path
         id="path56"
         style="fill:#ed1443;fill-opacity:1;fill-rule:nonzero;stroke:none"
         d="m 2142.07,317.355 -34.25,0 c 2.12,20.868 11.91,24.188 17.75,24.188 11.73,0 16.15,-12.449 16.5,-24.188 m 14.56,-7.726 c 0,33.34 -15.08,43.418 -31.42,43.418 -18.99,0 -32.12,-16.426 -32.12,-43.047 0,-28.848 13.3,-44.297 37.81,-44.297 10.12,0 15.8,1.789 20.6,3.914 2.14,0.91 3.01,2.68 2.31,4.613 l -1.61,4.434 c -0.7,1.777 -2.12,3.016 -4.6,2.313 -5.33,-1.59 -10.13,-2.852 -16.88,-2.852 -15.99,0 -22.18,9.777 -22.9,27.727 l 45.27,0 c 1.95,0 3.54,1.796 3.54,3.777"
         inkscape:connector-curvature="0" /><path
         id="path58"
         style="fill:#ed1443;fill-opacity:1;fill-rule:nonzero;stroke:none"
         d="m 2242.54,270.156 0,60.703 c 0,13.321 -8.54,22.2 -21.86,22.2 -9.22,0 -16.84,-3.555 -24.49,-12.414 l -1.94,8.691 c -0.53,2.141 -1.63,2.832 -4.09,2.832 l -3.92,0 c -1.94,0 -3.73,-1.406 -3.73,-3.543 l 0,-78.469 c 0,-1.961 1.79,-3.554 3.73,-3.554 l 6.76,0 c 1.96,0 3.72,1.593 3.72,3.554 l 0,48.809 c 0,12.258 9.06,22.043 20.59,22.043 7.8,0 11.02,-3.918 11.02,-13.32 l 0,-57.532 c 0,-1.961 1.78,-3.554 3.72,-3.554 l 6.76,0 c 1.92,0 3.73,1.593 3.73,3.554"
         inkscape:connector-curvature="0" /><path
         id="path60"
         style="fill:#ed1443;fill-opacity:1;fill-rule:nonzero;stroke:none"
         d="m 1780.2,380.734 c 0,1.922 -1.57,3.172 -3.32,3.172 l -7.56,0 c -1.78,0 -3.37,-1.25 -3.37,-3.172 l 0,-7.941 c 0,-1.727 1.59,-3.164 3.37,-3.164 l 7.56,0 c 1.75,0 3.32,1.437 3.32,3.164 l 0,7.941"
         inkscape:connector-curvature="0" /><path
         id="path62"
         style="fill:#ed1443;fill-opacity:1;fill-rule:nonzero;stroke:none"
         d="m 1810.62,380.734 c 0,1.922 -1.59,3.172 -3.32,3.172 l -7.6,0 c -1.74,0 -3.31,-1.25 -3.31,-3.172 l 0,-7.941 c 0,-1.727 1.57,-3.164 3.31,-3.164 l 7.6,0 c 1.73,0 3.32,1.437 3.32,3.164 l 0,7.941"
         inkscape:connector-curvature="0" /><path
         id="path64"
         style="fill:#ed1443;fill-opacity:1;fill-rule:nonzero;stroke:none"
         d="m 1815.19,352.168 -6.76,0 c -1.95,0 -3.72,-1.406 -3.72,-3.543 l 0,-43.145 c 0,-18.8 -8.85,-27.89 -21.46,-27.89 -6.76,0 -10.84,3.73 -10.84,12.461 l 0,58.281 c 0,2.098 -1.79,3.477 -3.68,3.543 -0.05,0 -18.67,-1.141 -18.67,-1.141 -1.7,-0.293 -2.99,-1.777 -2.99,-3.578 l 0,-2.886 c 0,-2.454 0.69,-3.516 2.8,-4.055 l 8.35,-1.903 0,-50.058 c 0,-14.914 8.12,-22.551 21.11,-22.551 15.61,0 21.49,8.359 25.92,13.137 l 2.31,-9.223 c 0.51,-1.949 1.77,-3.015 3.56,-3.015 l 4.07,0 c 1.95,0 3.71,1.593 3.71,3.554 l 0,78.469 c 0,2.137 -1.76,3.543 -3.71,3.543"
         inkscape:connector-curvature="0" /><path
         id="path66"
         style="fill:#656263;fill-opacity:1;fill-rule:nonzero;stroke:none"
         d="m 2844.67,135.215 -0.44,2.285 c -0.23,1.199 -1.2,1.965 -2.3,1.738 -1.08,-0.207 -2.5,-0.429 -3.38,-0.429 -2.71,0 -3.91,1.32 -3.91,4.257 l 0,34.661 6.1,0 c 1.19,0 2.18,1.082 2.18,2.285 l 0,2.402 c 0,1.199 -0.99,2.293 -2.18,2.293 l -6.1,0 0,13.613 c 0,1.75 -1.53,1.641 -2.84,1.203 l -4.04,-1.418 c -0.97,-0.324 -1.62,-1.199 -1.62,-2.39 l 0,-11.008 -6,0 c -1.31,0 -2.18,-1.094 -2.18,-2.293 l 0,-2.402 c 0,-1.203 0.87,-2.285 2.18,-2.285 l 6,0 0,-35.754 c 0,-6.981 3.49,-10.36 10.9,-10.36 2.29,0 4.46,0.332 5.99,0.77 1.53,0.429 1.86,1.523 1.64,2.832 m -32.7,-0.106 -0.65,2.938 c -0.34,1.418 -1.1,1.75 -2.4,1.418 -1.31,-0.332 -2.51,-0.656 -3.49,-0.656 -2.4,0 -2.73,1.523 -2.73,4.257 l 0,64.082 c 0,1.321 -1.09,2.188 -2.28,2.188 l -3.94,0 c -1.2,0 -2.28,-0.867 -2.28,-2.188 l 0,-66.269 c 0,-5.996 3.05,-9.266 9.92,-9.266 2.51,0 4.58,0.543 6.43,1.199 1.2,0.442 1.64,1.094 1.42,2.297 m -41.74,28.114 -21.03,0 c 1.31,12.968 7.3,15.05 10.9,15.05 7.19,0 9.92,-7.734 10.13,-15.05 m 8.94,-4.676 c 0,20.594 -9.26,26.695 -19.29,26.695 -11.66,0 -19.74,-10.027 -19.74,-26.492 0,-17.645 8.19,-27.137 23.23,-27.137 6.21,0 9.7,1.094 12.64,2.403 1.3,0.546 1.86,1.64 1.42,2.839 l -0.98,2.715 c -0.44,1.094 -1.31,1.856 -2.85,1.426 -3.26,-0.984 -6.2,-1.758 -10.34,-1.758 -9.81,0 -13.63,6.004 -14.06,17.012 l 27.79,0 c 1.19,0 2.18,1.094 2.18,2.297 m -49.37,23.652 c 0.33,1.621 -0.55,2.508 -1.75,2.508 l -4.79,0 c -1.32,0 -2.4,-0.664 -2.63,-2.07 l -6.42,-34.453 c -0.66,-3.7 -1.1,-7.957 -1.53,-11.551 -0.43,3.699 -0.88,7.851 -1.74,11.551 l -7.85,34.336 c -0.33,1.418 -1.41,2.187 -2.72,2.187 l -6.32,0 c -1.32,0 -2.29,-0.664 -2.62,-2.07 l -7.74,-34.453 c -0.87,-3.7 -1.31,-7.957 -1.85,-11.551 -0.34,3.699 -0.55,7.742 -1.31,11.66 l -6.98,34.227 c -0.32,1.632 -1.09,2.187 -2.5,2.187 l -5.13,0 c -1.19,0 -2.07,-0.984 -1.74,-2.625 l 11,-47.961 c 0.34,-1.531 0.99,-1.965 2.3,-1.965 l 8.07,0 c 1.41,0 2.28,0.766 2.5,1.965 l 7.52,33.352 c 0.77,3.269 1.2,7.312 1.53,11.226 0.43,-3.914 0.76,-7.847 1.52,-11.226 l 7.53,-33.352 c 0.31,-1.531 0.98,-1.965 2.29,-1.965 l 7.95,0 c 1.42,0 2.17,0.766 2.5,1.965 z m -80.78,-47.851 0,39.668 c 0,9.265 -7.08,11.226 -11.87,11.226 -5.68,0 -10.35,-2.722 -14.83,-8.054 -0.97,5.011 -5.44,8.054 -11.23,8.054 -5.77,0 -10.78,-3.922 -13.83,-7.515 l -1.21,5.222 c -0.32,1.321 -0.97,1.758 -2.5,1.758 l -2.4,0 c -1.2,0 -2.29,-0.887 -2.29,-2.187 l 0,-48.172 c 0,-1.203 1.09,-2.192 2.29,-2.192 l 4.13,0 c 1.2,0 2.3,0.989 2.3,2.192 l 0,30.078 c 0,7.519 5.45,13.191 11.88,13.191 3.38,0 5.13,-1.75 5.13,-5.125 l 0,-38.144 c 0,-1.203 1.09,-2.192 2.29,-2.192 l 4.14,0 c 1.19,0 2.29,0.989 2.29,2.192 l 0,30.078 c 0,7.519 5.56,13.191 11.99,13.191 3.38,0 5.01,-1.75 5.01,-5.125 l 0,-38.144 c 0,-1.203 1.08,-2.192 2.29,-2.192 l 4.14,0 c 1.2,0 2.28,0.989 2.28,2.192 m -82.51,19.726 0,48.946 c 0,1.304 -1.08,2.175 -2.28,2.175 l -4.14,0 c -1.2,0 -2.29,-0.871 -2.29,-2.175 l 0,-48.293 c 0,-12.977 -6.1,-15.594 -14.18,-15.594 -10.46,0 -13.72,6.441 -13.72,16.902 l 0,46.985 c 0,1.304 -1.09,2.175 -2.29,2.175 l -4.15,0 c -1.19,0 -2.28,-0.871 -2.28,-2.175 l 0,-48.946 c 0,-13.742 6.43,-22.461 22.44,-22.461 15.16,0 22.89,8.075 22.89,22.461 m -100.82,4.031 c 0,-13.085 -3.59,-19.296 -10.68,-19.296 -6.87,0 -9.92,5.566 -9.92,19.511 0,7.961 1.2,12.649 2.73,15.481 1.52,2.832 4.02,4.258 7.3,4.258 6.65,0 10.57,-6.985 10.57,-19.954 m 8.28,-23.757 0,72.8 c 0,1.321 -1.08,2.188 -2.28,2.188 l -3.93,0 c -1.19,0 -2.28,-0.867 -2.28,-2.188 l 0,-29.648 c -2.84,5.137 -6.88,7.742 -12.21,7.742 -4.7,0 -9.38,-2.066 -12.22,-5.875 -3.7,-5.019 -5.22,-10.363 -5.22,-21.152 0,-17.656 5.89,-26.602 17.11,-26.602 5.66,0 9.59,2.071 12.75,7.418 l 0.88,-4.683 c 0.31,-1.536 1.19,-2.192 2.82,-2.192 l 2.3,0 c 1.2,0 2.28,0.989 2.28,2.192 m -54.82,0 0,37.273 c 0,8.176 -5.23,13.621 -13.4,13.621 -5.67,0 -10.36,-2.176 -15.04,-7.625 l -1.2,5.332 c -0.33,1.321 -0.99,1.758 -2.51,1.758 l -2.4,0 c -1.2,0 -2.3,-0.887 -2.3,-2.187 l 0,-48.172 c 0,-1.203 1.1,-2.192 2.3,-2.192 l 4.14,0 c 1.2,0 2.28,0.989 2.28,2.192 l 0,29.968 c 0,7.52 5.57,13.516 12.66,13.516 4.78,0 6.75,-2.402 6.75,-8.184 l 0,-35.3 c 0,-1.203 1.08,-2.192 2.28,-2.192 l 4.16,0 c 1.18,0 2.28,0.989 2.28,2.192 m -57,0 0,48.172 c 0,1.3 -1.1,2.187 -2.3,2.187 l -4.13,0 c -1.2,0 -2.29,-0.887 -2.29,-2.187 l 0,-26.485 c 0,-11.551 -5.45,-17.109 -13.2,-17.109 -4.14,0 -6.64,2.285 -6.64,7.629 l 0,35.965 c 0,1.3 -1.09,2.187 -2.29,2.187 l -4.14,0 c -1.2,0 -2.3,-0.887 -2.3,-2.187 l 0,-37.059 c 0,-9.16 5.02,-13.848 12.98,-13.848 9.59,0 13.18,5.125 15.92,8.075 l 1.41,-5.672 c 0.33,-1.204 1.09,-1.86 2.17,-1.86 l 2.51,0 c 1.2,0 2.3,0.989 2.3,2.192 m -75.1,0.867 -0.44,2.285 c -0.22,1.199 -1.2,1.965 -2.29,1.738 -1.09,-0.207 -2.5,-0.429 -3.37,-0.429 -2.73,0 -3.93,1.32 -3.93,4.257 l 0,34.661 6.1,0 c 1.2,0 2.19,1.082 2.19,2.285 l 0,2.402 c 0,1.199 -0.99,2.293 -2.19,2.293 l -6.1,0 0,13.613 c 0,1.75 -1.52,1.641 -2.83,1.203 l -4.05,-1.418 c -0.97,-0.324 -1.62,-1.199 -1.62,-2.39 l 0,-11.008 -6,0 c -1.3,0 -2.18,-1.094 -2.18,-2.293 l 0,-2.402 c 0,-1.203 0.88,-2.285 2.18,-2.285 l 6,0 0,-35.754 c 0,-6.981 3.49,-10.36 10.89,-10.36 2.3,0 4.48,0.332 6,0.77 1.52,0.429 1.86,1.523 1.64,2.832 m -40.77,-0.867 0,48.172 c 0,1.203 -1.1,2.187 -2.28,2.187 l -3.93,0 c -1.2,0 -2.3,-0.984 -2.3,-2.187 l 0,-48.172 c 0,-1.203 1.1,-2.192 2.3,-2.192 l 3.93,0 c 1.18,0 2.28,0.989 2.28,2.192 m 2.08,69.207 c 0,3.488 -2.84,6.328 -6.33,6.328 -3.48,0 -6.32,-2.84 -6.32,-6.328 0,-3.485 2.84,-6.317 6.32,-6.317 3.49,0 6.33,2.832 6.33,6.317 m -36.86,-40.332 -21.02,0 c 1.31,12.968 7.29,15.05 10.9,15.05 7.18,0 9.92,-7.734 10.12,-15.05 m 8.95,-4.676 c 0,20.594 -9.26,26.695 -19.29,26.695 -11.66,0 -19.73,-10.027 -19.73,-26.492 0,-17.645 8.18,-27.137 23.22,-27.137 6.21,0 9.69,1.094 12.64,2.403 1.3,0.546 1.85,1.64 1.42,2.839 l -0.99,2.715 c -0.43,1.094 -1.3,1.856 -2.83,1.426 -3.27,-0.984 -6.21,-1.758 -10.35,-1.758 -9.81,0 -13.63,6.004 -14.06,17.012 l 27.79,0 c 1.2,0 2.18,1.094 2.18,2.297 m -55.48,-24.199 0,37.273 c 0,8.176 -5.24,13.621 -13.4,13.621 -5.56,0 -10.25,-2.176 -14.94,-7.41 l 0,29.316 c 0,1.321 -1.09,2.188 -2.29,2.188 l -3.92,0 c -1.2,0 -2.3,-0.867 -2.3,-2.188 l 0,-72.8 c 0,-1.203 1.1,-2.192 2.3,-2.192 l 3.92,0 c 1.2,0 2.29,0.989 2.29,2.192 l 0,29.968 c 0,7.52 5.78,13.516 12.86,13.516 4.8,0 6.97,-2.402 6.97,-8.184 l 0,-35.3 c 0,-1.203 1.1,-2.192 2.3,-2.192 l 3.92,0 c 1.2,0 2.29,0.989 2.29,2.192 m -65.4,23.757 c 0,-13.085 -3.59,-19.296 -10.68,-19.296 -6.87,0 -9.93,5.566 -9.93,19.511 0,7.961 1.21,12.649 2.74,15.481 1.52,2.832 4.03,4.258 7.3,4.258 6.64,0 10.57,-6.985 10.57,-19.954 m 8.29,-23.757 0,72.8 c 0,1.321 -1.09,2.188 -2.29,2.188 l -3.93,0 c -1.19,0 -2.28,-0.867 -2.28,-2.188 l 0,-29.648 c -2.85,5.137 -6.87,7.742 -12.21,7.742 -4.69,0 -9.39,-2.066 -12.21,-5.875 -3.71,-5.019 -5.23,-10.363 -5.23,-21.152 0,-17.656 5.88,-26.602 17.11,-26.602 5.67,0 9.59,2.071 12.75,7.418 l 0.88,-4.683 c 0.32,-1.536 1.19,-2.192 2.83,-2.192 l 2.29,0 c 1.2,0 2.29,0.989 2.29,2.192 m -54.83,0 0,37.273 c 0,8.176 -5.23,13.621 -13.4,13.621 -5.68,0 -10.36,-2.176 -15.05,-7.625 l -1.2,5.332 c -0.33,1.321 -0.99,1.758 -2.5,1.758 l -2.4,0 c -1.21,0 -2.3,-0.887 -2.3,-2.187 l 0,-48.172 c 0,-1.203 1.09,-2.192 2.3,-2.192 l 4.14,0 c 1.2,0 2.29,0.989 2.29,2.192 l 0,29.968 c 0,7.52 5.56,13.516 12.64,13.516 4.8,0 6.75,-2.402 6.75,-8.184 l 0,-35.3 c 0,-1.203 1.1,-2.192 2.29,-2.192 l 4.14,0 c 1.21,0 2.3,0.989 2.3,2.192 m -57.01,0 0,48.172 c 0,1.3 -1.09,2.187 -2.28,2.187 l -4.14,0 c -1.2,0 -2.29,-0.887 -2.29,-2.187 l 0,-26.485 c 0,-11.551 -5.44,-17.109 -13.19,-17.109 -4.14,0 -6.65,2.285 -6.65,7.629 l 0,35.965 c 0,1.3 -1.09,2.187 -2.29,2.187 l -4.13,0 c -1.21,0 -2.3,-0.887 -2.3,-2.187 l 0,-37.059 c 0,-9.16 5.02,-13.848 12.97,-13.848 9.59,0 13.2,5.125 15.9,8.075 l 1.43,-5.672 c 0.33,-1.204 1.09,-1.86 2.18,-1.86 l 2.51,0 c 1.19,0 2.28,0.989 2.28,2.192 m -53.07,11.98 c 0,15.918 -22.57,16.242 -22.57,25.402 0,3.926 2.84,6.434 7.74,6.434 3.27,0 6.65,-1.094 8.83,-1.973 1.2,-0.429 2.29,-0.203 2.72,1.094 l 0.99,2.727 c 0.43,1.308 0.1,2.402 -0.99,2.937 -2.83,1.321 -6.1,2.293 -11.22,2.293 -10.25,0 -16.68,-5.777 -16.68,-14.168 0,-14.597 22.35,-14.707 22.35,-24.629 0,-4.472 -2.51,-7.09 -7.96,-7.09 -4.36,0 -8.61,1.204 -12.1,2.95 -1.2,0.539 -2.4,0.097 -2.83,-1.426 l -0.99,-3.262 c -0.43,-1.316 -0.1,-2.293 1.2,-2.949 3.93,-1.961 9.81,-3.055 14.5,-3.055 10.46,0 17.01,6.114 17.01,14.715 m -53.07,16.895 -21.04,0 c 1.31,12.968 7.31,15.05 10.9,15.05 7.2,0 9.92,-7.734 10.14,-15.05 m 8.94,-4.676 c 0,20.594 -9.27,26.695 -19.29,26.695 -11.67,0 -19.73,-10.027 -19.73,-26.492 0,-17.645 8.17,-27.137 23.21,-27.137 6.22,0 9.7,1.094 12.65,2.403 1.31,0.546 1.86,1.64 1.41,2.839 l -0.98,2.715 c -0.43,1.094 -1.29,1.856 -2.83,1.426 -3.26,-0.984 -6.21,-1.758 -10.35,-1.758 -9.82,0 -13.63,6.004 -14.07,17.012 l 27.8,0 c 1.2,0 2.18,1.094 2.18,2.297 m -55.81,-20.606 0,33.895 c 0,1.309 -1.08,2.18 -2.29,2.18 l -17.98,0 c -1.31,0 -2.18,-1.094 -2.18,-2.286 l 0,-3.925 c 0,-1.203 0.87,-2.285 2.18,-2.285 l 11.66,0 0,-24.524 c -2.83,-0.867 -5.89,-1.308 -8.94,-1.308 -12.86,0 -20.6,8.066 -20.6,28.664 0,19.734 6.11,28.992 19.73,28.992 5.12,0 9.37,-1.426 13.08,-3.379 1.1,-0.547 2.18,0.215 2.51,0.976 l 1.85,4.043 c 0.44,1.086 0.22,2.278 -1.09,2.942 -4.47,2.285 -10.35,3.808 -15.9,3.808 -19.2,0 -29.66,-13.507 -29.66,-36.73 0,-25.066 10.03,-37.391 28.23,-37.391 5.89,0 12.44,0.977 16.46,2.508 1.96,0.762 2.94,1.641 2.94,3.82 m -82.17,43.497 c 0.53,2.175 -2.19,3.804 -5.68,3.804 -5.02,0 -9.16,-2.937 -12.21,-8.054 l -1.53,5.878 c -0.32,1.086 -1.19,1.641 -2.28,1.641 l -2.51,0 c -1.2,0 -2.29,-0.887 -2.29,-2.187 l 0,-48.172 c 0,-1.203 1.09,-2.192 2.29,-2.192 l 4.14,0 c 1.2,0 2.29,0.989 2.29,2.192 l 0,28.445 c 0,9.484 4.25,13.398 7.41,13.398 2.07,0 4.58,-0.761 6.11,-1.191 1.85,-0.547 2.83,0.43 3.16,1.965 z m -46.23,-47.09 0,48.172 c 0,1.3 -1.09,2.187 -2.29,2.187 l -4.14,0 c -1.2,0 -2.29,-0.887 -2.29,-2.187 l 0,-26.485 c 0,-11.551 -5.44,-17.109 -13.19,-17.109 -4.14,0 -6.65,2.285 -6.65,7.629 l 0,35.965 c 0,1.3 -1.09,2.187 -2.28,2.187 l -4.15,0 c -1.2,0 -2.29,-0.887 -2.29,-2.187 l 0,-37.059 c 0,-9.16 5.02,-13.848 12.97,-13.848 9.6,0 13.19,5.125 15.92,8.075 l 1.42,-5.672 c 0.32,-1.204 1.09,-1.86 2.18,-1.86 l 2.5,0 c 1.2,0 2.29,0.989 2.29,2.192 m -23.11,65.722 c 0,2.95 -2.29,5.125 -5.34,5.125 -2.61,0 -5.01,-2.175 -5.01,-5.125 0,-3.058 2.4,-5.343 5.12,-5.343 3.05,0 5.23,2.285 5.23,5.343 m 18.86,0 c 0,2.95 -2.51,5.125 -5.12,5.125 -3.05,0 -5.34,-2.175 -5.34,-5.125 0,-3.058 2.4,-5.343 5.45,-5.343 2.61,0 5.01,2.285 5.01,5.343 m -44.25,5.125 c 0.32,1.203 0,2.395 -1.2,2.942 -1.75,0.761 -5.56,1.746 -7.3,1.746 -6.87,0 -11.89,-3.379 -11.89,-12.434 l 0,-12.742 -5.99,0 c -1.31,0 -2.18,-1.094 -2.18,-2.293 l 0,-2.402 c 0,-1.203 0.87,-2.285 2.18,-2.285 l 5.99,0 0,-43.379 c 0,-1.203 1.21,-2.192 2.29,-2.192 l 3.93,0 c 1.2,0 2.29,0.989 2.29,2.192 l 0,43.379 8.39,0 c 1.2,0 2.18,1.082 2.18,2.285 l 0,2.402 c 0,1.199 -0.98,2.293 -2.18,2.293 l -8.39,0 0,12.41 c 0,3.938 1.52,5.141 3.81,5.141 1.42,0 3.6,-0.879 4.69,-1.203 1.2,-0.332 2.18,0.109 2.51,1.203 z m -67.04,-70.847 0,39.668 c 0,9.265 -7.08,11.226 -11.88,11.226 -5.66,0 -10.35,-2.722 -14.82,-8.054 -0.98,5.011 -5.44,8.054 -11.23,8.054 -5.77,0 -10.79,-3.922 -13.84,-7.515 l -1.2,5.222 c -0.33,1.321 -0.98,1.758 -2.51,1.758 l -2.39,0 c -1.2,0 -2.29,-0.887 -2.29,-2.187 l 0,-48.172 c 0,-1.203 1.09,-2.192 2.29,-2.192 l 4.14,0 c 1.2,0 2.29,0.989 2.29,2.192 l 0,30.078 c 0,7.519 5.45,13.191 11.88,13.191 3.38,0 5.12,-1.75 5.12,-5.125 l 0,-38.144 c 0,-1.203 1.09,-2.192 2.3,-2.192 l 4.13,0 c 1.2,0 2.3,0.989 2.3,2.192 l 0,30.078 c 0,7.519 5.55,13.191 11.98,13.191 3.38,0 5.01,-1.75 5.01,-5.125 l 0,-38.144 c 0,-1.203 1.09,-2.192 2.29,-2.192 l 4.15,0 c 1.19,0 2.28,0.989 2.28,2.192 m -80.32,0 0,48.172 c 0,1.3 -1.1,2.187 -2.3,2.187 l -4.14,0 c -1.2,0 -2.29,-0.887 -2.29,-2.187 l 0,-26.485 c 0,-11.551 -5.45,-17.109 -13.19,-17.109 -4.14,0 -6.65,2.285 -6.65,7.629 l 0,35.965 c 0,1.3 -1.09,2.187 -2.27,2.187 l -4.16,0 c -1.2,0 -2.29,-0.887 -2.29,-2.187 l 0,-37.059 c 0,-9.16 5.02,-13.848 12.98,-13.848 9.59,0 13.18,5.125 15.91,8.075 l 1.42,-5.672 c 0.32,-1.204 1.09,-1.86 2.18,-1.86 l 2.5,0 c 1.2,0 2.3,0.989 2.3,2.192 m -46.86,47.09 c 0.54,2.175 -2.18,3.804 -5.67,3.804 -5.02,0 -9.15,-2.937 -12.21,-8.054 l -1.53,5.878 c -0.32,1.086 -1.19,1.641 -2.28,1.641 l -2.51,0 c -1.2,0 -2.28,-0.887 -2.28,-2.187 l 0,-48.172 c 0,-1.203 1.08,-2.192 2.28,-2.192 l 4.14,0 c 1.2,0 2.29,0.989 2.29,2.192 l 0,28.445 c 0,9.484 4.26,13.398 7.41,13.398 2.07,0 4.58,-0.761 6.11,-1.191 1.85,-0.547 2.83,0.43 3.16,1.965 z m -40.01,-46.223 -0.43,2.285 c -0.22,1.199 -1.2,1.965 -2.29,1.738 -1.09,-0.207 -2.5,-0.429 -3.38,-0.429 -2.72,0 -3.92,1.32 -3.92,4.257 l 0,34.661 6.1,0 c 1.2,0 2.18,1.082 2.18,2.285 l 0,2.402 c 0,1.199 -0.98,2.293 -2.18,2.293 l -6.1,0 0,13.613 c 0,1.75 -1.53,1.641 -2.84,1.203 l -4.02,-1.418 c -0.99,-0.324 -1.64,-1.199 -1.64,-2.39 l 0,-11.008 -6,0 c -1.31,0 -2.18,-1.094 -2.18,-2.293 l 0,-2.402 c 0,-1.203 0.87,-2.285 2.18,-2.285 l 6,0 0,-35.754 c 0,-6.981 3.48,-10.36 10.89,-10.36 2.29,0 4.47,0.332 6,0.77 1.53,0.429 1.86,1.523 1.63,2.832 m -40.11,-0.867 0,37.273 c 0,8.176 -5.23,13.621 -13.39,13.621 -5.68,0 -10.37,-2.176 -15.04,-7.625 l -1.21,5.332 c -0.33,1.321 -0.98,1.758 -2.51,1.758 l -2.4,0 c -1.2,0 -2.29,-0.887 -2.29,-2.187 l 0,-48.172 c 0,-1.203 1.09,-2.192 2.29,-2.192 l 4.14,0 c 1.2,0 2.29,0.989 2.29,2.192 l 0,29.968 c 0,7.52 5.56,13.516 12.65,13.516 4.79,0 6.75,-2.402 6.75,-8.184 l 0,-35.3 c 0,-1.203 1.09,-2.192 2.29,-2.192 l 4.15,0 c 1.19,0 2.28,0.989 2.28,2.192 m -62.78,28.875 -21.04,0 c 1.31,12.968 7.31,15.05 10.9,15.05 7.2,0 9.92,-7.734 10.14,-15.05 m 8.94,-4.676 c 0,20.594 -9.27,26.695 -19.29,26.695 -11.67,0 -19.73,-10.027 -19.73,-26.492 0,-17.645 8.18,-27.137 23.21,-27.137 6.22,0 9.71,1.094 12.65,2.403 1.31,0.546 1.85,1.64 1.42,2.839 l -0.99,2.715 c -0.43,1.094 -1.3,1.856 -2.83,1.426 -3.27,-0.984 -6.21,-1.758 -10.35,-1.758 -9.81,0 -13.63,6.004 -14.07,17.012 l 27.8,0 c 1.2,0 2.18,1.094 2.18,2.297 m -50.25,-24.094 0,3.047 c 0,1.199 -0.98,1.965 -2.18,1.965 l -18.31,0 c -1.2,0 -2.94,-0.11 -4.03,-0.227 0.87,1.094 2.18,3.067 3.16,4.7 l 20.06,32.48 c 0.55,0.867 0.76,1.523 0.76,2.613 l 0,3.383 c 0,1.199 -0.98,2.293 -2.18,2.293 l -26.92,0 c -1.31,0 -2.18,-1.094 -2.18,-2.293 l 0,-2.512 c 0,-1.203 0.87,-2.285 2.18,-2.285 l 17.44,0 c 0.65,0 2.18,0 3.16,0.215 -0.77,-0.762 -1.53,-1.965 -2.39,-3.379 l -21.05,-33.894 c -0.43,-0.762 -0.87,-1.633 -0.87,-2.618 l 0,-2.511 c 0,-1.953 0.87,-3.274 2.4,-3.274 l 28.77,0 c 1.2,0 2.18,1.098 2.18,2.297 m -45.56,11.875 c 0,15.918 -22.56,16.242 -22.56,25.402 0,3.926 2.83,6.434 7.74,6.434 3.27,0 6.65,-1.094 8.83,-1.973 1.2,-0.429 2.29,-0.203 2.72,1.094 l 0.98,2.727 c 0.44,1.308 0.11,2.402 -0.98,2.937 -2.83,1.321 -6.1,2.293 -11.22,2.293 -10.25,0 -16.68,-5.777 -16.68,-14.168 0,-14.597 22.34,-14.707 22.34,-24.629 0,-4.472 -2.5,-7.09 -7.95,-7.09 -4.36,0 -8.62,1.204 -12.1,2.95 -1.2,0.539 -2.4,0.097 -2.83,-1.426 l -0.98,-3.262 c -0.44,-1.316 -0.12,-2.293 1.19,-2.949 3.92,-1.961 9.81,-3.055 14.5,-3.055 10.46,0 17,6.114 17,14.715 m -56.01,20.274 c 0,-10.125 -4.9,-12.422 -10.23,-12.422 -5.57,0 -10.26,1.965 -10.26,12.422 0,10.136 4.69,12.097 10.26,12.097 5.54,0 10.23,-2.066 10.23,-12.097 m 12.75,-39.559 c 0,8.816 -6.21,14.062 -15.91,14.062 l -8.5,0 c -4.58,0 -6.32,0.645 -6.32,3.165 0,1.406 0.98,2.714 2.18,3.804 1.74,-0.426 3.59,-0.652 5.57,-0.652 11.66,0 19.17,7.082 19.17,18.859 0,3.809 -1.64,7.735 -4.14,11.004 l 3.81,0.332 c 1.32,0.11 2.18,0.871 2.18,2.071 l 0,2.726 c 0,1.199 -0.86,2.293 -2.18,2.293 l -12.31,0 c -2.29,0 -4.26,0.535 -6.65,0.535 -11.23,0 -19.19,-6.875 -19.19,-18.961 0,-7.199 3.16,-12.539 7.96,-15.695 -2.62,-2.402 -4.8,-5.234 -4.8,-9.16 0,-5.77 5.02,-8.172 11.56,-8.172 l 10.35,0 c 6.11,0 8.61,-2.727 8.61,-7.414 0,-5.125 -5.87,-8.067 -12.3,-8.067 -5.25,0 -11.24,0.872 -12,7.09 -0.22,1.301 -1.09,2.18 -2.29,2.18 l -4.8,0.098 c -1.2,0 -2.29,-0.871 -2.29,-2.18 0,-11.555 11.01,-14.813 21.04,-14.813 9.93,0 21.25,4.579 21.25,16.895 m -58.74,7.305 0,37.273 c 0,8.176 -5.23,13.621 -13.41,13.621 -5.66,0 -10.35,-2.176 -15.03,-7.625 l -1.21,5.332 c -0.32,1.321 -0.98,1.758 -2.5,1.758 l -2.4,0 c -1.19,0 -2.29,-0.887 -2.29,-2.187 l 0,-48.172 c 0,-1.203 1.1,-2.192 2.29,-2.192 l 4.14,0 c 1.2,0 2.29,0.989 2.29,2.192 l 0,29.968 c 0,7.52 5.56,13.516 12.64,13.516 4.8,0 6.76,-2.402 6.76,-8.184 l 0,-35.3 c 0,-1.203 1.1,-2.192 2.29,-2.192 l 4.14,0 c 1.2,0 2.29,0.989 2.29,2.192 m -57,0 0,48.172 c 0,1.3 -1.09,2.187 -2.28,2.187 l -4.16,0 c -1.19,0 -2.28,-0.887 -2.28,-2.187 l 0,-26.485 c 0,-11.551 -5.45,-17.109 -13.19,-17.109 -4.15,0 -6.65,2.285 -6.65,7.629 l 0,35.965 c 0,1.3 -1.09,2.187 -2.29,2.187 l -4.14,0 c -1.2,0 -2.29,-0.887 -2.29,-2.187 l 0,-37.059 c 0,-9.16 5.02,-13.848 12.97,-13.848 9.59,0 13.19,5.125 15.91,8.075 l 1.42,-5.672 c 0.33,-1.204 1.09,-1.86 2.18,-1.86 l 2.52,0 c 1.19,0 2.28,0.989 2.28,2.192 m -57.01,0 0,37.273 c 0,8.176 -5.23,13.621 -13.41,13.621 -5.56,0 -10.24,-2.176 -14.927,-7.41 l 0,29.316 c 0,1.321 -1.089,2.188 -2.289,2.188 l -3.922,0 c -1.203,0 -2.289,-0.867 -2.289,-2.188 l 0,-72.8 c 0,-1.203 1.086,-2.192 2.289,-2.192 l 3.922,0 c 1.2,0 2.289,0.989 2.289,2.192 l 0,29.968 c 0,7.52 5.777,13.516 12.857,13.516 4.8,0 6.98,-2.402 6.98,-8.184 l 0,-35.3 c 0,-1.203 1.09,-2.192 2.29,-2.192 l 3.92,0 c 1.2,0 2.29,0.989 2.29,2.192 m -50.458,1.308 -0.769,3.375 c -0.219,1.098 -1.203,2.074 -2.719,1.633 -2.07,-0.535 -4.695,-0.976 -7.633,-0.976 -8.285,0 -12.539,6.32 -12.539,19.179 0,11.778 4.801,18.86 11.563,18.86 3.047,0 5.66,-0.872 7.406,-1.536 1.633,-0.644 2.402,0.227 2.719,1.309 l 1.09,3.164 c 0.445,1.203 -0.211,2.07 -1.625,2.727 -1.965,0.879 -5.563,1.851 -9.274,1.851 -12.098,0 -21.137,-10.894 -21.137,-26.375 0,-17.558 8.5,-27.254 21.25,-27.254 3.711,0 6.871,0.332 9.918,1.309 1.418,0.437 1.961,1.64 1.75,2.734 m -45.351,10.672 c 0,15.918 -22.559,16.242 -22.559,25.402 0,3.926 2.828,6.434 7.742,6.434 3.27,0 6.649,-1.094 8.828,-1.973 1.2,-0.429 2.29,-0.203 2.719,1.094 l 0.981,2.727 c 0.441,1.308 0.113,2.402 -0.981,2.937 -2.828,1.321 -6.097,2.293 -11.222,2.293 -10.247,0 -16.676,-5.777 -16.676,-14.168 0,-14.597 22.34,-14.707 22.34,-24.629 0,-4.472 -2.5,-7.09 -7.953,-7.09 -4.356,0 -8.61,1.204 -12.098,2.95 -1.199,0.539 -2.399,0.097 -2.836,-1.426 l -0.984,-3.262 c -0.43,-1.316 -0.106,-2.293 1.203,-2.949 3.929,-1.961 9.808,-3.055 14.496,-3.055 10.465,0 17,6.114 17,14.715 m -40.758,35.11 c 0.539,2.175 -2.18,3.804 -5.672,3.804 -5.008,0 -9.16,-2.937 -12.207,-8.054 l -1.523,5.878 c -0.329,1.086 -1.196,1.641 -2.289,1.641 l -2.512,0 c -1.199,0 -2.289,-0.887 -2.289,-2.187 l 0,-48.172 c 0,-1.203 1.09,-2.192 2.289,-2.192 l 4.14,0 c 1.204,0 2.293,0.989 2.293,2.192 l 0,28.445 c 0,9.484 4.247,13.398 7.411,13.398 2.07,0 4.582,-0.761 6.109,-1.191 1.852,-0.547 2.832,0.43 3.16,1.965 z m -52.32,-23 c 0,-13.418 -4.141,-19.629 -11.661,-19.629 -7.519,0 -11.671,6.211 -11.671,19.629 0,13.078 4.152,19.503 11.671,19.503 7.52,0 11.661,-6.425 11.661,-19.503 m 9.261,0 c 0,16.671 -8.062,26.804 -20.714,26.804 -12.637,0 -20.918,-10.133 -20.918,-26.804 0,-16.797 8.281,-26.825 20.918,-26.825 12.652,0 20.714,10.028 20.714,26.825 m -50.132,40.976 0,3.606 c 0,1.304 -1.09,2.175 -2.29,2.175 l -32.261,0 c -1.199,0 -2.289,-0.871 -2.289,-2.175 l 0,-68.672 c 0,-1.203 1.09,-2.192 2.289,-2.192 l 4.254,0 c 1.195,0 2.289,0.989 2.289,2.192 l 0,32.476 23.109,0 c 1.309,0 2.293,0.981 2.293,2.395 l 0,3.39 c 0,1.192 -0.984,2.176 -2.293,2.176 l -23.109,0 0,22.227 25.718,0 c 1.422,0 2.29,1.093 2.29,2.402 m -80.661,-53.086 c 0,15.918 -22.558,16.242 -22.558,25.402 0,3.926 2.828,6.434 7.742,6.434 3.266,0 6.648,-1.094 8.828,-1.973 1.199,-0.429 2.289,-0.203 2.719,1.094 l 0.98,2.727 c 0.442,1.308 0.11,2.402 -0.98,2.937 -2.828,1.321 -6.098,2.293 -11.223,2.293 -10.246,0 -16.679,-5.777 -16.679,-14.168 0,-14.597 22.343,-14.707 22.343,-24.629 0,-4.472 -2.5,-7.09 -7.953,-7.09 -4.359,0 -8.609,1.204 -12.098,2.95 -1.199,0.539 -2.398,0.097 -2.839,-1.426 l -0.981,-3.262 c -0.43,-1.316 -0.109,-2.293 1.203,-2.949 3.93,-1.961 9.809,-3.055 14.496,-3.055 10.465,0 17,6.114 17,14.715 m -53.058,16.895 -21.043,0 c 1.316,12.968 7.312,15.05 10.906,15.05 7.195,0 9.914,-7.734 10.137,-15.05 m 8.937,-4.676 c 0,20.594 -9.265,26.695 -19.3,26.695 -11.657,0 -19.715,-10.027 -19.715,-26.492 0,-17.645 8.168,-27.137 23.207,-27.137 6.218,0 9.703,1.094 12.652,2.403 1.297,0.546 1.848,1.64 1.41,2.839 l -0.98,2.715 c -0.43,1.094 -1.309,1.856 -2.832,1.426 -3.27,-0.984 -6.207,-1.758 -10.36,-1.758 -9.808,0 -13.621,6.004 -14.062,17.012 l 27.805,0 c 1.195,0 2.175,1.094 2.175,2.297 m -55.476,-24.199 0,37.273 c 0,8.176 -5.231,13.621 -13.414,13.621 -5.555,0 -10.25,-2.176 -14.926,-7.41 l 0,29.316 c 0,1.321 -1.09,2.188 -2.289,2.188 l -3.922,0 c -1.203,0 -2.289,-0.867 -2.289,-2.188 l 0,-72.8 c 0,-1.203 1.086,-2.192 2.289,-2.192 l 3.922,0 c 1.199,0 2.289,0.989 2.289,2.192 l 0,29.968 c 0,7.52 5.766,13.516 12.859,13.516 4.801,0 6.981,-2.402 6.981,-8.184 l 0,-35.3 c 0,-1.203 1.086,-2.192 2.289,-2.192 l 3.922,0 c 1.199,0 2.289,0.989 2.289,2.192 m -50.469,1.308 -0.762,3.375 c -0.218,1.098 -1.203,2.074 -2.718,1.633 -2.083,-0.535 -4.696,-0.976 -7.633,-0.976 -8.293,0 -12.539,6.32 -12.539,19.179 0,11.778 4.8,18.86 11.547,18.86 3.062,0 5.675,-0.872 7.421,-1.536 1.633,-0.644 2.395,0.227 2.719,1.309 l 1.09,3.164 c 0.445,1.203 -0.219,2.07 -1.625,2.727 -1.973,0.879 -5.563,1.851 -9.273,1.851 -12.098,0 -21.137,-10.894 -21.137,-26.375 0,-17.558 8.496,-27.254 21.25,-27.254 3.707,0 6.871,0.332 9.918,1.309 1.418,0.437 1.961,1.64 1.742,2.734 m -45.344,10.672 c 0,15.918 -22.558,16.242 -22.558,25.402 0,3.926 2.828,6.434 7.742,6.434 3.269,0 6.648,-1.094 8.828,-1.973 1.191,-0.429 2.277,-0.203 2.719,1.094 l 0.98,2.727 c 0.442,1.308 0.11,2.402 -0.98,2.937 -2.828,1.321 -6.098,2.293 -11.231,2.293 -10.238,0 -16.672,-5.777 -16.672,-14.168 0,-14.597 22.344,-14.707 22.344,-24.629 0,-4.472 -2.508,-7.09 -7.961,-7.09 -4.359,0 -8.609,1.204 -12.09,2.95 -1.199,0.539 -2.398,0.097 -2.84,-1.426 l -0.98,-3.262 c -0.437,-1.316 -0.113,-2.293 1.203,-2.949 3.918,-1.961 9.809,-3.055 14.496,-3.055 10.465,0 17,6.114 17,14.715 m -42.179,-11.113 -0.442,2.285 c -0.211,1.199 -1.195,1.965 -2.289,1.738 -1.09,-0.207 -2.5,-0.429 -3.367,-0.429 -2.731,0 -3.934,1.32 -3.934,4.257 l 0,34.661 6.114,0 c 1.187,0 2.168,1.082 2.168,2.285 l 0,2.402 c 0,1.199 -0.981,2.293 -2.168,2.293 l -6.114,0 0,13.613 c 0,1.75 -1.527,1.641 -2.828,1.203 l -4.043,-1.418 c -0.976,-0.324 -1.625,-1.199 -1.625,-2.39 l 0,-11.008 -6,0 c -1.304,0 -2.183,-1.094 -2.183,-2.293 l 0,-2.402 c 0,-1.203 0.879,-2.285 2.183,-2.285 l 6,0 0,-35.754 c 0,-6.981 3.488,-10.36 10.899,-10.36 2.289,0 4.468,0.332 5.992,0.77 1.527,0.429 1.859,1.523 1.637,2.832 m -39.778,-0.867 0,48.172 c 0,1.3 -1.094,2.187 -2.289,2.187 l -4.152,0 c -1.192,0 -2.278,-0.887 -2.278,-2.187 l 0,-26.485 c 0,-11.551 -5.449,-17.109 -13.195,-17.109 -4.148,0 -6.648,2.285 -6.648,7.629 l 0,35.965 c 0,1.3 -1.09,2.187 -2.293,2.187 l -4.133,0 c -1.203,0 -2.289,-0.887 -2.289,-2.187 l 0,-37.059 c 0,-9.16 5.008,-13.848 12.965,-13.848 9.59,0 13.191,5.125 15.91,8.075 l 1.422,-5.672 c 0.332,-1.204 1.086,-1.86 2.176,-1.86 l 2.515,0 c 1.195,0 2.289,0.989 2.289,2.192 m -62.461,28.875 -21.039,0 c 1.309,12.968 7.309,15.05 10.899,15.05 7.203,0 9.922,-7.734 10.14,-15.05 m 8.942,-4.676 c 0,20.594 -9.274,26.695 -19.301,26.695 -11.66,0 -19.723,-10.027 -19.723,-26.492 0,-17.645 8.172,-27.137 23.211,-27.137 6.223,0 9.699,1.094 12.649,2.403 1.304,0.546 1.851,1.64 1.41,2.839 l -0.977,2.715 c -0.433,1.094 -1.312,1.856 -2.832,1.426 -3.269,-0.984 -6.211,-1.758 -10.359,-1.758 -9.813,0 -13.621,6.004 -14.059,17.012 l 27.797,0 c 1.203,0 2.184,1.094 2.184,2.297 m -62.68,9.48 c 0,-24.636 -8.172,-27.898 -18.855,-27.898 l -8.618,0 0,57.32 8.618,0 c 4.906,0 9.812,-1.531 12.976,-5.113 3.809,-4.367 5.879,-10.469 5.879,-24.309 m 9.598,1.524 c 0,23.547 -8.399,35.644 -28.453,35.644 l -15.157,0 c -1.187,0 -2.277,-0.871 -2.277,-2.175 l 0,-68.672 c 0,-1.203 1.09,-2.192 2.277,-2.192 l 15.481,0 c 20.82,0 28.129,12.328 28.129,37.395"
         inkscape:connector-curvature="0" /></g></g><rect
     style="fill:#0000ff;fill-opacity:0;stroke:#000000;stroke-opacity:0"
     id="rect4169"
     width="340.4512"
     height="37.757923"
     x="0.5"
     y="0.5" /></svg>